<svg width="320" height="320" viewBox="0 0 320 320" fill="none" xmlns="http://www.w3.org/2000/svg">
<path d="M280.603 121.001C271.825 99.2829 257.219 80.3289 238.349 66.1699C238.453 65.4779 234.787 32.9945 234.774 32.2898C234.515 29.903 233.369 27.6952 231.557 26.0914C229.745 24.4875 227.396 23.6008 224.961 23.6019C220.425 22.4358 196.874 42.2974 193.001 44.2451C171.173 38.5814 148.23 38.5814 126.402 44.2451C122.347 42.1821 99.1072 22.5383 94.4411 23.6019C92.0064 23.6061 89.6586 24.4944 87.8461 26.0969C86.0336 27.6995 84.8834 29.9041 84.615 32.2898C84.615 33.0073 80.9887 65.4395 81.0407 66.1571C-16.882 138.723 35.2507 296.424 159.727 296.424C250.241 298.18 315.06 201.614 280.603 121.001ZM159.727 218.387C92.9203 217.221 92.7124 119.386 159.467 117.926C226.547 118.861 226.794 217.247 159.727 218.451V218.387Z" fill="#21BF48"/>
</svg>
